999
dxfrw 0.6.3
  0
SECTION
  2
HEADER
  9
$ACADVER
  1
AC1021
  9
$DWGCODEPAGE
  3
ANSI_1252
  9
$INSBASE
 10
0
 20
0
 30
0
  9
$EXTMIN
 10
-3.740157480315
 20
-2.46062992126
 30
0
  9
$EXTMAX
 10
3.740157480315
 20
6.052
 30
0
  9
$LIMMIN
 10
0
 20
0
  9
$LIMMAX
 10
420
 20
297
  9
$ORTHOMODE
 70
    0
  9
$REGENMODE
 70
    1
  9
$FILLMODE
 70
    1
  9
$QTEXTMODE
 70
    0
  9
$MIRRTEXT
 70
    0
  9
$LTSCALE
 40
1
  9
$ATTMODE
 70
    0
  9
$TEXTSIZE
 40
2.5
  9
$TRACEWID
 40
15.68
  9
$TEXTSTYLE
  7
STANDARD
  9
$CLAYER
  8
10-32_insert_hole
  9
$CELTYPE
  6
BYLAYER
  9
$CECOLOR
 62
  256
  9
$CELTSCALE
 40
1
  9
$DISPSILH
 70
    0
  9
$DIMSCALE
 40
1
  9
$DIMASZ
 40
0.1
  9
$DIMEXO
 40
0.025
  9
$DIMDLI
 40
3.75
  9
$DIMRND
 40
0
  9
$DIMDLE
 40
0
  9
$DIMEXE
 40
0.05
  9
$DIMTP
 40
0
  9
$DIMTM
 40
0
  9
$DIMTXT
 40
0.1
  9
$DIMCEN
 40
2.5
  9
$DIMTSZ
 40
0
  9
$DIMTOL
 70
    0
  9
$DIMLIM
 70
    0
  9
$DIMTIH
 70
    0
  9
$DIMTOH
 70
    0
  9
$DIMSE1
 70
    0
  9
$DIMSE2
 70
    0
  9
$DIMTAD
 70
    1
  9
$DIMZIN
 70
    8
  9
$DIMBLK
  1

  9
$DIMASO
 70
    1
  9
$DIMSHO
 70
    1
  9
$DIMPOST
  1

  9
$DIMAPOST
  1

  9
$DIMALT
 70
    0
  9
$DIMALTD
 70
    3
  9
$DIMALTF
 40
0.03937
  9
$DIMLFAC
 40
1
  9
$DIMTOFL
 70
    1
  9
$DIMTVP
 40
0
  9
$DIMTIX
 70
    0
  9
$DIMSOXD
 70
    0
  9
$DIMSAH
 70
    0
  9
$DIMBLK1
  1

  9
$DIMBLK2
  1

  9
$DIMSTYLE
  2
STANDARD
  9
$DIMCLRD
 70
    0
  9
$DIMCLRE
 70
    0
  9
$DIMCLRT
 70
    0
  9
$DIMTFAC
 40
1
  9
$DIMGAP
 40
0.025
  9
$DIMJUST
 70
    0
  9
$DIMSD1
 70
    0
  9
$DIMSD2
 70
    0
  9
$DIMTOLJ
 70
    0
  9
$DIMTZIN
 70
    8
  9
$DIMALTZ
 70
    0
  9
$DIMALTTZ
 70
    0
  9
$DIMUPT
 70
    0
  9
$DIMDEC
 70
    4
  9
$DIMTDEC
 70
    2
  9
$DIMALTU
 70
    2
  9
$DIMALTTD
 70
    3
  9
$DIMTXSTY
  7
standard
  9
$DIMAUNIT
 70
    0
  9
$DIMADEC
 70
    2
  9
$DIMALTRND
 40
0
  9
$DIMAZIN
 70
    0
  9
$DIMDSEP
 70
    0
  9
$DIMATFIT
 70
    3
  9
$DIMFRAC
 70
    0
  9
$DIMLDRBLK
  1
STANDARD
  9
$DIMLUNIT
 70
    2
  9
$DIMLWD
 70
   -2
  9
$DIMLWE
 70
   -2
  9
$DIMTMOVE
 70
    0
  9
$DIMFXL
 40
1
  9
$DIMFXLON
 70
    0
  9
$DIMJOGANG
 40
0.7854
  9
$DIMTFILL
 70
    0
  9
$DIMTFILLCLR
 70
    0
  9
$DIMARCSYM
 70
    0
  9
$DIMLTYPE
  6

  9
$DIMLTEX1
  6

  9
$DIMLTEX2
  6

  9
$LUNITS
 70
    2
  9
$LUPREC
 70
    4
  9
$SKETCHINC
 40
1
  9
$FILLETRAD
 40
0
  9
$AUNITS
 70
    0
  9
$AUPREC
 70
    2
  9
$MENU
  1
.
  9
$ELEVATION
 40
0
  9
$PELEVATION
 40
0
  9
$THICKNESS
 40
0
  9
$LIMCHECK
 70
    0
  9
$CHAMFERA
 40
0
  9
$CHAMFERB
 40
0
  9
$CHAMFERC
 40
0
  9
$CHAMFERD
 40
0
  9
$SKPOLY
 70
    0
  9
$USRTIMER
 70
    1
  9
$ANGBASE
 50
0
  9
$ANGDIR
 70
    0
  9
$PDMODE
 70
   34
  9
$PDSIZE
 40
0
  9
$PLINEWID
 40
0
  9
$SPLFRAME
 70
    0
  9
$SPLINETYPE
 70
    2
  9
$SPLINESEGS
 70
    8
  9
$HANDSEED
  5
20000
  9
$SURFTAB1
 70
    6
  9
$SURFTAB2
 70
    6
  9
$SURFTYPE
 70
    6
  9
$SURFU
 70
    6
  9
$SURFV
 70
    6
  9
$UCSBASE
  2

  9
$UCSNAME
  2

  9
$UCSORG
 10
0
 20
0
 30
0
  9
$UCSXDIR
 10
1
 20
0
 30
0
  9
$UCSYDIR
 10
0
 20
1
 30
0
  9
$UCSORTHOREF
  2

  9
$UCSORTHOVIEW
 70
    0
  9
$UCSORGTOP
 10
0
 20
0
 30
0
  9
$UCSORGBOTTOM
 10
0
 20
0
 30
0
  9
$UCSORGLEFT
 10
0
 20
0
 30
0
  9
$UCSORGRIGHT
 10
0
 20
0
 30
0
  9
$UCSORGFRONT
 10
0
 20
0
 30
0
  9
$UCSORGBACK
 10
0
 20
0
 30
0
  9
$PUCSBASE
  2

  9
$PUCSNAME
  2

  9
$PUCSORG
 10
0
 20
0
 30
0
  9
$PUCSXDIR
 10
1
 20
0
 30
0
  9
$PUCSYDIR
 10
0
 20
1
 30
0
  9
$PUCSORTHOREF
  2

  9
$PUCSORTHOVIEW
 70
    0
  9
$PUCSORGTOP
 10
0
 20
0
 30
0
  9
$PUCSORGBOTTOM
 10
0
 20
0
 30
0
  9
$PUCSORGLEFT
 10
0
 20
0
 30
0
  9
$PUCSORGRIGHT
 10
0
 20
0
 30
0
  9
$PUCSORGFRONT
 10
0
 20
0
 30
0
  9
$PUCSORGBACK
 10
0
 20
0
 30
0
  9
$USERI1
 70
    0
  9
$USERI2
 70
    0
  9
$USERI3
 70
    0
  9
$USERI4
 70
    0
  9
$USERI5
 70
    0
  9
$USERR1
 40
0
  9
$USERR2
 40
0
  9
$USERR3
 40
0
  9
$USERR4
 40
0
  9
$USERR5
 40
0
  9
$WORLDVIEW
 70
    1
  9
$SHADEDGE
 70
    3
  9
$SHADEDIF
 70
   70
  9
$TILEMODE
 70
    1
  9
$MAXACTVP
 70
   64
  9
$PINSBASE
 10
0
 20
0
 30
0
  9
$PLIMCHECK
 70
    0
  9
$PEXTMIN
 10
0
 20
0
 30
0
  9
$PEXTMAX
 10
0
 20
0
 30
0
  9
$GRIDMODE
 70
    1
  9
$SNAPSTYLE
 70
    0
  9
$GRIDUNIT
 10
0
 20
0
  9
$PLIMMIN
 10
0
 20
0
  9
$PLIMMAX
 10
7.820151999999999e-07
 20
1.1059922e-06
  9
$UNITMODE
 70
    0
  9
$VISRETAIN
 70
    1
  9
$PLINEGEN
 70
    0
  9
$PSLTSCALE
 70
    1
  9
$TREEDEPTH
 70
 3020
  9
$CMLSTYLE
  2
Standard
  9
$CMLJUST
 70
    0
  9
$CMLSCALE
 40
20
  9
$PROXYGRAPHICS
 70
    1
  9
$MEASUREMENT
 70
    1
  9
$CELWEIGHT
370
   -1
  9
$ENDCAPS
280
    0
  9
$JOINSTYLE
280
    0
  9
$LWDISPLAY
290
    0
  9
$INSUNITS
 70
    1
  9
$HYPERLINKBASE
  1

  9
$STYLESHEET
  1

  9
$XEDIT
290
    1
  9
$CEPSNTYPE
380
    0
  9
$PSTYLEMODE
290
    1
  9
$EXTNAMES
290
    1
  9
$PSVPSCALE
 40
1
  9
$OLESTARTUP
290
    0
  9
$SORTENTS
280
  127
  9
$INDEXCTL
280
    0
  9
$HIDETEXT
280
    1
  9
$XCLIPFRAME
290
    0
  9
$HALOGAP
280
    0
  9
$OBSCOLOR
 70
  257
  9
$OBSLTYPE
280
    0
  9
$INTERSECTIONDISPLAY
280
    0
  9
$INTERSECTIONCOLOR
 70
  257
  9
$DIMASSOC
280
    1
  9
$PROJECTNAME
  1

  9
$CAMERADISPLAY
290
    0
  9
$LENSLENGTH
 40
50
  9
$CAMERAHEIGHT
 40
0
  9
$STEPSPERSEC
 40
2
  9
$STEPSIZE
 40
50
  9
$3DDWFPREC
 40
2
  9
$PSOLWIDTH
 40
5
  9
$PSOLHEIGHT
 40
80
  9
$LOFTANG1
 40
1.570796326794897
  9
$LOFTANG2
 40
1.570796326794897
  9
$LOFTMAG1
 40
0
  9
$LOFTMAG2
 40
0
  9
$LOFTPARAM
 70
    7
  9
$LOFTNORMALS
280
    1
  9
$LATITUDE
 40
1
  9
$LONGITUDE
 40
1
  9
$NORTHDIRECTION
 40
0
  9
$TIMEZONE
 70
-8000
  9
$LIGHTGLYPHDISPLAY
280
    1
  9
$TILEMODELIGHTSYNCH
280
    1
  9
$SOLIDHIST
280
    1
  9
$SHOWHIST
280
    1
  9
$DWFFRAME
280
    2
  9
$DGNFRAME
280
    0
  9
$REALWORLDSCALE
290
    1
  9
$INTERFERECOLOR
 62
    1
  9
$CSHADOW
280
    0
  9
$SHADOWPLANELOCATION
 40
0
  0
ENDSEC
  0
SECTION
  2
CLASSES
  0
ENDSEC
  0
SECTION
  2
TABLES
  0
TABLE
  2
VPORT
  5
8
330
0
100
AcDbSymbolTable
 70
    1
  0
VPORT
  5
31
330
2
100
AcDbSymbolTableRecord
100
AcDbViewportTableRecord
  2
*ACTIVE
 70
    0
 10
0
 20
0
 11
1
 21
1
 12
-0.04523409566160414
 22
1.331367711114677
 13
0
 23
0
 14
10
 24
10
 15
10
 25
10
 16
0
 26
0
 36
1
 17
0
 27
0
 37
0
 40
1.111273454611946
 41
1.756986634264885
 42
50
 43
0
 44
0
 50
0
 51
0
 71
    0
 72
  100
 73
    1
 74
    3
 75
    0
 76
    1
 77
    0
 78
    0
281
    0
 65
    1
110
0
120
0
130
0
111
1
121
0
131
0
112
0
122
1
132
0
 79
    0
146
0
348
10020
 60
    7
 61
    5
292
1
282
    1
141
0
142
0
 63
  250
421
3358443
  0
ENDTAB
  0
TABLE
  2
LTYPE
  5
5
330
0
100
AcDbSymbolTable
 70
    4
  0
LTYPE
  5
14
330
5
100
AcDbSymbolTableRecord
100
AcDbLinetypeTableRecord
  2
ByBlock
 70
    0
  3

 72
   65
 73
    0
 40
0
  0
LTYPE
  5
15
330
5
100
AcDbSymbolTableRecord
100
AcDbLinetypeTableRecord
  2
ByLayer
 70
    0
  3

 72
   65
 73
    0
 40
0
  0
LTYPE
  5
16
330
5
100
AcDbSymbolTableRecord
100
AcDbLinetypeTableRecord
  2
Continuous
 70
    0
  3
Solid line
 72
   65
 73
    0
 40
0
  0
LTYPE
  5
32
330
5
100
AcDbSymbolTableRecord
100
AcDbLinetypeTableRecord
  2
DOT
 70
    0
  3
Dot . . . . . . . . . . . . . . . . . . . . . .
 72
   65
 73
    2
 40
6.35
 49
0
 74
    0
 49
-6.35
 74
    0
  0
LTYPE
  5
33
330
5
100
AcDbSymbolTableRecord
100
AcDbLinetypeTableRecord
  2
DOTTINY
 70
    0
  3
Dot (.15x) .....................................
 72
   65
 73
    2
 40
0.9525
 49
0
 74
    0
 49
-0.9525
 74
    0
  0
LTYPE
  5
34
330
5
100
AcDbSymbolTableRecord
100
AcDbLinetypeTableRecord
  2
DOT2
 70
    0
  3
Dot (.5x) .....................................
 72
   65
 73
    2
 40
3.175
 49
0
 74
    0
 49
-3.175
 74
    0
  0
LTYPE
  5
35
330
5
100
AcDbSymbolTableRecord
100
AcDbLinetypeTableRecord
  2
DOTX2
 70
    0
  3
Dot (2x) .  .  .  .  .  .  .  .  .  .  .  .  .
 72
   65
 73
    2
 40
12.7
 49
0
 74
    0
 49
-12.7
 74
    0
  0
LTYPE
  5
36
330
5
100
AcDbSymbolTableRecord
100
AcDbLinetypeTableRecord
  2
DASHED
 70
    0
  3
Dashed _ _ _ _ _ _ _ _ _ _ _ _ _ _ _ _ _
 72
   65
 73
    2
 40
19.05
 49
12.7
 74
    0
 49
-6.35
 74
    0
  0
LTYPE
  5
37
330
5
100
AcDbSymbolTableRecord
100
AcDbLinetypeTableRecord
  2
DASHEDTINY
 70
    0
  3
Dashed (.15x) _ _ _ _ _ _ _ _ _ _ _ _ _ _ _ _ _
 72
   65
 73
    2
 40
2.8575
 49
1.905
 74
    0
 49
-0.9525
 74
    0
  0
LTYPE
  5
38
330
5
100
AcDbSymbolTableRecord
100
AcDbLinetypeTableRecord
  2
DASHED2
 70
    0
  3
Dashed (.5x) _ _ _ _ _ _ _ _ _ _ _ _ _ _ _ _ _
 72
   65
 73
    2
 40
9.524999999999999
 49
6.35
 74
    0
 49
-3.175
 74
    0
  0
LTYPE
  5
39
330
5
100
AcDbSymbolTableRecord
100
AcDbLinetypeTableRecord
  2
DASHEDX2
 70
    0
  3
Dashed (2x) ____  ____  ____  ____  ____  ___
 72
   65
 73
    2
 40
38.09999999999999
 49
25.4
 74
    0
 49
-12.7
 74
    0
  0
LTYPE
  5
3A
330
5
100
AcDbSymbolTableRecord
100
AcDbLinetypeTableRecord
  2
DASHDOT
 70
    0
  3
Dash dot __ . __ . __ . __ . __ . __ . __ . __
 72
   65
 73
    4
 40
25.4
 49
12.7
 74
    0
 49
-6.35
 74
    0
 49
0
 74
    0
 49
-6.35
 74
    0
  0
LTYPE
  5
3B
330
5
100
AcDbSymbolTableRecord
100
AcDbLinetypeTableRecord
  2
DASHDOTTINY
 70
    0
  3
Dash dot (.15x) _._._._._._._._._._._._._._._.
 72
   65
 73
    4
 40
3.81
 49
1.905
 74
    0
 49
-0.9525
 74
    0
 49
0
 74
    0
 49
-0.9525
 74
    0
  0
LTYPE
  5
3C
330
5
100
AcDbSymbolTableRecord
100
AcDbLinetypeTableRecord
  2
DASHDOT2
 70
    0
  3
Dash dot (.5x) _._._._._._._._._._._._._._._.
 72
   65
 73
    4
 40
12.7
 49
6.35
 74
    0
 49
-3.175
 74
    0
 49
0
 74
    0
 49
-3.175
 74
    0
  0
LTYPE
  5
3D
330
5
100
AcDbSymbolTableRecord
100
AcDbLinetypeTableRecord
  2
DASHDOTX2
 70
    0
  3
Dash dot (2x) ____  .  ____  .  ____  .  ___
 72
   65
 73
    4
 40
50.8
 49
25.4
 74
    0
 49
-12.7
 74
    0
 49
0
 74
    0
 49
-12.7
 74
    0
  0
LTYPE
  5
3E
330
5
100
AcDbSymbolTableRecord
100
AcDbLinetypeTableRecord
  2
DIVIDE
 70
    0
  3
Divide ____ . . ____ . . ____ . . ____ . . ____
 72
   65
 73
    6
 40
31.75
 49
12.7
 74
    0
 49
-6.35
 74
    0
 49
0
 74
    0
 49
-6.35
 74
    0
 49
0
 74
    0
 49
-6.35
 74
    0
  0
LTYPE
  5
3F
330
5
100
AcDbSymbolTableRecord
100
AcDbLinetypeTableRecord
  2
DIVIDETINY
 70
    0
  3
Divide (.15x) __..__..__..__..__..__..__..__.._
 72
   65
 73
    6
 40
4.7625
 49
1.905
 74
    0
 49
-0.9525
 74
    0
 49
0
 74
    0
 49
-0.9525
 74
    0
 49
0
 74
    0
 49
-0.9525
 74
    0
  0
LTYPE
  5
40
330
5
100
AcDbSymbolTableRecord
100
AcDbLinetypeTableRecord
  2
DIVIDE2
 70
    0
  3
Divide (.5x) __..__..__..__..__..__..__..__.._
 72
   65
 73
    6
 40
15.875
 49
6.35
 74
    0
 49
-3.175
 74
    0
 49
0
 74
    0
 49
-3.175
 74
    0
 49
0
 74
    0
 49
-3.175
 74
    0
  0
LTYPE
  5
41
330
5
100
AcDbSymbolTableRecord
100
AcDbLinetypeTableRecord
  2
DIVIDEX2
 70
    0
  3
Divide (2x) ________  .  .  ________  .  .  _
 72
   65
 73
    6
 40
63.5
 49
25.4
 74
    0
 49
-12.7
 74
    0
 49
0
 74
    0
 49
-12.7
 74
    0
 49
0
 74
    0
 49
-12.7
 74
    0
  0
LTYPE
  5
42
330
5
100
AcDbSymbolTableRecord
100
AcDbLinetypeTableRecord
  2
BORDER
 70
    0
  3
Border __ __ . __ __ . __ __ . __ __ . __ __ .
 72
   65
 73
    6
 40
44.45
 49
12.7
 74
    0
 49
-6.35
 74
    0
 49
12.7
 74
    0
 49
-6.35
 74
    0
 49
0
 74
    0
 49
-6.35
 74
    0
  0
LTYPE
  5
43
330
5
100
AcDbSymbolTableRecord
100
AcDbLinetypeTableRecord
  2
BORDERTINY
 70
    0
  3
Border (.15x) __.__.__.__.__.__.__.__.__.__.__.
 72
   65
 73
    6
 40
6.6675
 49
1.905
 74
    0
 49
-0.9525
 74
    0
 49
1.905
 74
    0
 49
-0.9525
 74
    0
 49
0
 74
    0
 49
-0.9525
 74
    0
  0
LTYPE
  5
44
330
5
100
AcDbSymbolTableRecord
100
AcDbLinetypeTableRecord
  2
BORDER2
 70
    0
  3
Border (.5x) __.__.__.__.__.__.__.__.__.__.__.
 72
   65
 73
    6
 40
22.225
 49
6.35
 74
    0
 49
-3.175
 74
    0
 49
6.35
 74
    0
 49
-3.175
 74
    0
 49
0
 74
    0
 49
-3.175
 74
    0
  0
LTYPE
  5
45
330
5
100
AcDbSymbolTableRecord
100
AcDbLinetypeTableRecord
  2
BORDERX2
 70
    0
  3
Border (2x) ____  ____  .  ____  ____  .  ___
 72
   65
 73
    6
 40
88.89999999999999
 49
25.4
 74
    0
 49
-12.7
 74
    0
 49
25.4
 74
    0
 49
-12.7
 74
    0
 49
0
 74
    0
 49
-12.7
 74
    0
  0
LTYPE
  5
46
330
5
100
AcDbSymbolTableRecord
100
AcDbLinetypeTableRecord
  2
CENTER
 70
    0
  3
Center ____ _ ____ _ ____ _ ____ _ ____ _ ____
 72
   65
 73
    4
 40
50.8
 49
31.75
 74
    0
 49
-6.35
 74
    0
 49
6.35
 74
    0
 49
-6.35
 74
    0
  0
LTYPE
  5
47
330
5
100
AcDbSymbolTableRecord
100
AcDbLinetypeTableRecord
  2
CENTERTINY
 70
    0
  3
Center (.15x) ___ _ ___ _ ___ _ ___ _ ___ _ ___
 72
   65
 73
    4
 40
7.619999999999999
 49
4.7625
 74
    0
 49
-0.9525
 74
    0
 49
0.9525
 74
    0
 49
-0.9525
 74
    0
  0
LTYPE
  5
48
330
5
100
AcDbSymbolTableRecord
100
AcDbLinetypeTableRecord
  2
CENTER2
 70
    0
  3
Center (.5x) ___ _ ___ _ ___ _ ___ _ ___ _ ___
 72
   65
 73
    4
 40
28.575
 49
19.05
 74
    0
 49
-3.175
 74
    0
 49
3.175
 74
    0
 49
-3.175
 74
    0
  0
LTYPE
  5
49
330
5
100
AcDbSymbolTableRecord
100
AcDbLinetypeTableRecord
  2
CENTERX2
 70
    0
  3
Center (2x) ________  __  ________  __  _____
 72
   65
 73
    4
 40
101.6
 49
63.5
 74
    0
 49
-12.7
 74
    0
 49
12.7
 74
    0
 49
-12.7
 74
    0
  0
ENDTAB
  0
TABLE
  2
LAYER
  5
2
330
0
100
AcDbSymbolTable
 70
    1
  0
LAYER
  5
10
330
2
100
AcDbSymbolTableRecord
100
AcDbLayerTableRecord
  2
0
 70
    0
 62
    7
  6
CONTINUOUS
370
    0
390
F
  0
LAYER
  5
4A
330
2
100
AcDbSymbolTableRecord
100
AcDbLayerTableRecord
  2
10-32_insert_hole
 70
    0
 62
   96
420
32768
  6
CONTINUOUS
370
    0
390
F
  0
LAYER
  5
4B
330
2
100
AcDbSymbolTableRecord
100
AcDbLayerTableRecord
  2
2-56_insert_hole
 70
    0
 62
    2
  6
CONTINUOUS
370
    0
390
F
  0
LAYER
  5
4C
330
2
100
AcDbSymbolTableRecord
100
AcDbLayerTableRecord
  2
2-56_through_hole
 70
    0
 62
    3
  6
CONTINUOUS
370
    0
390
F
  0
LAYER
  5
4D
330
2
100
AcDbSymbolTableRecord
100
AcDbLayerTableRecord
  2
6-32_through_hole
 70
    0
 62
    1
  6
CONTINUOUS
370
    0
390
F
  0
LAYER
  5
4E
330
2
100
AcDbSymbolTableRecord
100
AcDbLayerTableRecord
  2
boundary_lower_plate
 70
    0
 62
    5
  6
CONTINUOUS
370
    0
390
F
  0
LAYER
  5
4F
330
2
100
AcDbSymbolTableRecord
100
AcDbLayerTableRecord
  2
boundary_sensor_plate
 70
    0
 62
   40
420
16755200
  6
CONTINUOUS
370
    0
390
F
  0
LAYER
  5
50
330
2
100
AcDbSymbolTableRecord
100
AcDbLayerTableRecord
  2
boundary_upper_plate
 70
    0
 62
    4
  6
CONTINUOUS
370
    0
390
F
  0
LAYER
  5
51
330
2
100
AcDbSymbolTableRecord
100
AcDbLayerTableRecord
  2
const_0
 70
    0
 62
  211
420
16755455
  6
CONTINUOUS
370
    0
390
F
  0
LAYER
  5
52
330
2
100
AcDbSymbolTableRecord
100
AcDbLayerTableRecord
  2
const_1
 70
    0
 62
  211
420
16733695
  6
CONTINUOUS
370
    0
390
F
  0
LAYER
  5
53
330
2
100
AcDbSymbolTableRecord
100
AcDbLayerTableRecord
  2
dimensions
 70
    0
 62
    7
  6
CONTINUOUS
370
    0
390
F
  0
LAYER
  5
54
330
2
100
AcDbSymbolTableRecord
100
AcDbLayerTableRecord
  2
outline_6-32_backet
 70
    0
 62
    8
  6
CONTINUOUS
370
    0
390
F
  0
LAYER
  5
55
330
2
100
AcDbSymbolTableRecord
100
AcDbLayerTableRecord
  2
outline_battery
 70
    0
 62
    8
  6
CONTINUOUS
370
    0
390
F
  0
LAYER
  5
56
330
2
100
AcDbSymbolTableRecord
100
AcDbLayerTableRecord
  2
outline_camera_bracket
 70
    0
 62
    8
  6
CONTINUOUS
370
    0
390
F
  0
LAYER
  5
57
330
2
100
AcDbSymbolTableRecord
100
AcDbLayerTableRecord
  2
outline_mini_gps
 70
    0
 62
    8
  6
CONTINUOUS
370
    0
390
F
  0
LAYER
  5
58
330
2
100
AcDbSymbolTableRecord
100
AcDbLayerTableRecord
  2
outline_pi_conn
 70
    0
 62
    8
  6
CONTINUOUS
370
    0
390
F
  0
LAYER
  5
59
330
2
100
AcDbSymbolTableRecord
100
AcDbLayerTableRecord
  2
outline_qwiic_pihat
 70
    0
 62
    8
  6
CONTINUOUS
370
    0
390
F
  0
LAYER
  5
5A
330
2
100
AcDbSymbolTableRecord
100
AcDbLayerTableRecord
  2
outline_qwiic_relay
 70
    0
 62
    8
  6
CONTINUOUS
370
    0
390
F
  0
LAYER
  5
5B
330
2
100
AcDbSymbolTableRecord
100
AcDbLayerTableRecord
  2
outline_rpi_zero
 70
    0
 62
    8
  6
CONTINUOUS
370
    0
390
F
  0
LAYER
  5
5C
330
2
100
AcDbSymbolTableRecord
100
AcDbLayerTableRecord
  2
outline_sensors
 70
    0
 62
    8
  6
CONTINUOUS
370
    0
390
F
  0
LAYER
  5
5D
330
2
100
AcDbSymbolTableRecord
100
AcDbLayerTableRecord
  2
outline_si7021
 70
    0
 62
    8
  6
CONTINUOUS
370
    0
390
F
  0
LAYER
  5
5E
330
2
100
AcDbSymbolTableRecord
100
AcDbLayerTableRecord
  2
outline_solar_charger
 70
    0
 62
    8
  6
CONTINUOUS
370
    0
390
F
  0
LAYER
  5
5F
330
2
100
AcDbSymbolTableRecord
100
AcDbLayerTableRecord
  2
outline_tsl2591
 70
    0
 62
    8
  6
CONTINUOUS
370
    0
390
F
  0
ENDTAB
  0
TABLE
  2
STYLE
  5
3
330
0
100
AcDbSymbolTable
 70
    3
  0
STYLE
  5
60
330
2
100
AcDbSymbolTableRecord
100
AcDbTextStyleTableRecord
  2
Standard
 70
    0
 40
0
 41
1
 50
0
 71
    0
 42
1
  3
txt
  4

  0
ENDTAB
  0
TABLE
  2
VIEW
  5
6
330
0
100
AcDbSymbolTable
 70
    0
  0
ENDTAB
  0
TABLE
  2
UCS
  5
7
330
0
100
AcDbSymbolTable
 70
    0
  0
ENDTAB
  0
TABLE
  2
APPID
  5
9
330
0
100
AcDbSymbolTable
 70
    1
  0
APPID
  5
12
330
9
100
AcDbSymbolTableRecord
100
AcDbRegAppTableRecord
  2
ACAD
 70
    0
  0
APPID
  5
61
330
9
100
AcDbSymbolTableRecord
100
AcDbRegAppTableRecord
  2
LibreCad
 70
    0
  0
ENDTAB
  0
TABLE
  2
DIMSTYLE
  5
A
330
0
100
AcDbSymbolTable
 70
    1
100
AcDbDimStyleTable
 71
    1
  0
DIMSTYLE
105
62
330
A
100
AcDbSymbolTableRecord
100
AcDbDimStyleTableRecord
  2
Standard
 70
    0
 40
1
 41
0.1
 42
0.025
 43
0.38
 44
0.05
 45
0
 46
0
 47
0
 48
0
 49
1
140
0.1
141
0.09
142
0
143
25.4
144
1
145
0
146
1
147
0.025
148
0
 71
    0
 72
    0
 73
    0
 74
    1
 75
    0
 76
    0
 77
    0
 78
    8
 79
    0
170
    0
171
    2
172
    0
173
    0
174
    0
175
    0
176
    0
177
    0
178
    0
179
    2
271
    4
272
    4
273
    2
274
    2
275
    0
276
    0
277
    2
278
    0
279
    0
280
    0
281
    0
282
    0
283
    1
284
    0
285
    0
286
    0
288
    0
289
    3
340
standard
341

371
   -2
372
   -2
  0
ENDTAB
  0
TABLE
  2
BLOCK_RECORD
  5
1
330
0
100
AcDbSymbolTable
 70
    2
  0
BLOCK_RECORD
  5
1F
330
1
100
AcDbSymbolTableRecord
100
AcDbBlockTableRecord
  2
*Model_Space
 70
    0
280
    1
281
    0
  0
BLOCK_RECORD
  5
1E
330
1
100
AcDbSymbolTableRecord
100
AcDbBlockTableRecord
  2
*Paper_Space
 70
    0
280
    1
281
    0
  0
BLOCK_RECORD
  5
63
330
1
100
AcDbSymbolTableRecord
100
AcDbBlockTableRecord
  2
*D1
 70
    0
280
    1
281
    0
  0
BLOCK_RECORD
  5
66
330
1
100
AcDbSymbolTableRecord
100
AcDbBlockTableRecord
  2
*D2
 70
    0
280
    1
281
    0
  0
ENDTAB
  0
ENDSEC
  0
SECTION
  2
BLOCKS
  0
BLOCK
  5
20
330
1F
100
AcDbEntity
  8
0
100
AcDbBlockBegin
  2
*Model_Space
 70
    0
 10
0
 20
0
 30
0
  3
*Model_Space
  1

  0
ENDBLK
  5
21
330
1F
100
AcDbEntity
  8
0
100
AcDbBlockEnd
  0
BLOCK
  5
1C
330
1B
100
AcDbEntity
  8
0
100
AcDbBlockBegin
  2
*Paper_Space
 70
    0
 10
0
 20
0
 30
0
  3
*Paper_Space
  1

  0
ENDBLK
  5
1D
330
1F
100
AcDbEntity
  8
0
100
AcDbBlockEnd
  0
BLOCK
  5
64
330
63
100
AcDbEntity
  8
0
100
AcDbBlockBegin
  2
*D1
 70
    1
 10
0
 20
0
  3
*D1
  1

  0
LINE
  5
69
100
AcDbEntity
  8
dimensions
  6
ByBlock
 62
    0
370
   -2
100
AcDbLine
 10
-2.3
 20
6.052
 11
-2.3
 21
4.552
  0
SOLID
  5
6A
100
AcDbEntity
  8
dimensions
  6
ByBlock
 62
    0
370
   -2
100
AcDbTrace
 10
-2.3
 20
6.052
 30
0
 11
-2.283348613689086
 21
5.952
 31
0
 12
-2.316651386310913
 22
5.952
 32
0
 13
-2.316651386310913
 23
5.952
 33
0
  0
SOLID
  5
6B
100
AcDbEntity
  8
dimensions
  6
ByBlock
 62
    0
370
   -2
100
AcDbTrace
 10
-2.3
 20
4.552
 30
0
 11
-2.316651386310913
 21
4.651999999999999
 31
0
 12
-2.283348613689086
 22
4.651999999999999
 32
0
 13
-2.283348613689086
 23
4.651999999999999
 33
0
  0
MTEXT
  5
6C
100
AcDbEntity
  8
dimensions
  6
CONTINUOUS
 62
    0
370
   -2
100
AcDbMText
 10
-2.375
 20
5.302
 30
0
 40
0.1
 41
0.1333333333333395
 71
    5
 72
    1
  1
1.5
  7
standard
210
0
220
0
230
1
 50
90
 73
    2
 44
1
  0
LINE
  5
6D
100
AcDbEntity
  8
dimensions
  6
ByBlock
 62
    0
370
   -2
100
AcDbLine
 10
-2.025
 20
6.052
 11
-2.35
 21
6.052
  0
LINE
  5
6E
100
AcDbEntity
  8
dimensions
  6
ByBlock
 62
    0
370
   -2
100
AcDbLine
 10
-2.025
 20
4.552
 11
-2.35
 21
4.552
  0
ENDBLK
  5
65
330
63
100
AcDbEntity
  8
0
100
AcDbBlockEnd
  0
BLOCK
  5
67
330
66
100
AcDbEntity
  8
0
100
AcDbBlockBegin
  2
*D2
 70
    1
 10
0
 20
0
  3
*D2
  1

  0
LINE
  5
6F
100
AcDbEntity
  8
dimensions
  6
ByBlock
 62
    0
370
   -2
100
AcDbLine
 10
-0.5999999999999993
 20
6.052
 11
-0.5999999999999994
 21
4
  0
SOLID
  5
70
100
AcDbEntity
  8
dimensions
  6
ByBlock
 62
    0
370
   -2
100
AcDbTrace
 10
-0.5999999999999993
 20
6.052
 30
0
 11
-0.5833486136890857
 21
5.952
 31
0
 12
-0.616651386310913
 22
5.952
 32
0
 13
-0.616651386310913
 23
5.952
 33
0
  0
SOLID
  5
71
100
AcDbEntity
  8
dimensions
  6
ByBlock
 62
    0
370
   -2
100
AcDbTrace
 10
-0.5999999999999994
 20
4
 30
0
 11
-0.616651386310913
 21
4.1
 31
0
 12
-0.5833486136890857
 22
4.1
 32
0
 13
-0.5833486136890857
 23
4.1
 33
0
  0
MTEXT
  5
72
100
AcDbEntity
  8
dimensions
  6
CONTINUOUS
 62
    0
370
   -2
100
AcDbMText
 10
-0.6749999999999994
 20
5.026
 30
0
 40
0.1
 41
0.3111111111111173
 71
    5
 72
    1
  1
2.052
  7
standard
210
0
220
0
230
1
 50
90
 73
    2
 44
1
  0
LINE
  5
73
100
AcDbEntity
  8
dimensions
  6
ByBlock
 62
    0
370
   -2
100
AcDbLine
 10
-0.8750000000000003
 20
6.052
 11
-0.5499999999999993
 21
6.052
  0
LINE
  5
74
100
AcDbEntity
  8
dimensions
  6
ByBlock
 62
    0
370
   -2
100
AcDbLine
 10
-0.8750000000000003
 20
4
 11
-0.5499999999999994
 21
4
  0
ENDBLK
  5
68
330
66
100
AcDbEntity
  8
0
100
AcDbBlockEnd
  0
ENDSEC
  0
SECTION
  2
ENTITIES
  0
ARC
  5
75
100
AcDbEntity
  8
boundary_lower_plate
  6
ByLayer
 62
  256
370
   -1
100
AcDbCircle
 10
-3.615157480315
 20
2.33562992126
 40
0.125
100
AcDbArc
 50
90
 51
180
  0
LINE
  5
76
100
AcDbEntity
  8
boundary_lower_plate
  6
ByLayer
 62
  256
370
   -1
100
AcDbLine
 10
3.615157480315
 20
2.46062992126
 11
-3.615157480315
 21
2.46062992126
  0
ARC
  5
77
100
AcDbEntity
  8
boundary_lower_plate
  6
ByLayer
 62
  256
370
   -1
100
AcDbCircle
 10
3.615157480315
 20
2.33562992126
 40
0.125
100
AcDbArc
 50
4.07110999227e-13
 51
90
  0
LINE
  5
78
100
AcDbEntity
  8
boundary_lower_plate
  6
ByLayer
 62
  256
370
   -1
100
AcDbLine
 10
3.740157480315
 20
-2.33562992126
 11
3.740157480315
 21
2.33562992126
  0
ARC
  5
79
100
AcDbEntity
  8
boundary_lower_plate
  6
ByLayer
 62
  256
370
   -1
100
AcDbCircle
 10
3.615157480315
 20
-2.33562992126
 40
0.125
100
AcDbArc
 50
270
 51
0
  0
LINE
  5
7A
100
AcDbEntity
  8
boundary_lower_plate
  6
ByLayer
 62
  256
370
   -1
100
AcDbLine
 10
-3.740157480315
 20
2.33562992126
 11
-3.740157480315
 21
-2.33562992126
  0
LINE
  5
7B
100
AcDbEntity
  8
boundary_lower_plate
  6
ByLayer
 62
  256
370
   -1
100
AcDbLine
 10
-3.615157480315
 20
-2.46062992126
 11
3.615157480315
 21
-2.46062992126
  0
ARC
  5
7C
100
AcDbEntity
  8
boundary_lower_plate
  6
ByLayer
 62
  256
370
   -1
100
AcDbCircle
 10
-3.615157480315
 20
-2.33562992126
 40
0.125
100
AcDbArc
 50
180
 51
270
  0
LWPOLYLINE
  5
7D
100
AcDbEntity
  8
const_0
  6
ByLayer
 62
  256
370
   -1
100
AcDbPolyline
 90
    4
 70
    1
 43
0
 10
-3.5
 20
-2.2
 10
-1.45
 20
-2.2
 10
-1.45
 20
-1.4
 10
-3.5
 20
-1.4
  0
LINE
  5
7E
100
AcDbEntity
  8
const_0
  6
ByLayer
 62
  256
370
   -1
100
AcDbLine
 10
-3.5
 20
-1.4
 11
-1.45
 21
-2.2
  0
LINE
  5
7F
100
AcDbEntity
  8
const_1
  6
ByLayer
 62
  256
370
   -1
100
AcDbLine
 10
-3.6
 20
-2.3
 11
-1.35
 21
-1.3
  0
LINE
  5
80
100
AcDbEntity
  8
outline_battery
  6
ByLayer
 62
  256
370
   -1
100
AcDbLine
 10
-1.2
 20
-1.110223024625157e-16
 11
-1.2
 21
2
  0
LINE
  5
81
100
AcDbEntity
  8
outline_battery
  6
ByLayer
 62
  256
370
   -1
100
AcDbLine
 10
1.2
 20
-1.110223024625157e-16
 11
1.2
 21
2
  0
LINE
  5
82
100
AcDbEntity
  8
outline_battery
  6
ByLayer
 62
  256
370
   -1
100
AcDbLine
 10
-1.2
 20
-1.110223024625157e-16
 11
-1.2
 21
-2
  0
LINE
  5
83
100
AcDbEntity
  8
outline_battery
  6
ByLayer
 62
  256
370
   -1
100
AcDbLine
 10
1.2
 20
-1.110223024625157e-16
 11
1.2
 21
-2
  0
LINE
  5
84
100
AcDbEntity
  8
outline_battery
  6
ByLayer
 62
  256
370
   -1
100
AcDbLine
 10
-1.2
 20
2
 11
1.2
 21
2
  0
LINE
  5
85
100
AcDbEntity
  8
outline_battery
  6
ByLayer
 62
  256
370
   -1
100
AcDbLine
 10
-1.2
 20
-2
 11
1.2
 21
-2
  0
LWPOLYLINE
  5
86
100
AcDbEntity
  8
outline_qwiic_relay
  6
ByLayer
 62
  256
370
   -1
100
AcDbPolyline
 90
    4
 70
    1
 43
0
 10
-3.6
 20
-2.3
 10
-1.35
 20
-2.3
 10
-1.35
 20
-1.3
 10
-3.6
 20
-1.3
  0
LINE
  5
87
100
AcDbEntity
  8
const_0
  6
ByLayer
 62
  256
370
   -1
100
AcDbLine
 10
3.740157480315
 20
0
 11
3.490157480315
 21
0
  0
LWPOLYLINE
  5
88
100
AcDbEntity
  8
outline_rpi_zero
  6
ByLayer
 62
  256
370
   -1
100
AcDbPolyline
 90
    4
 70
    1
 43
0
 10
1.609055118110275
 20
-1.279527559055118
 10
2.790157480315
 20
-1.279527559055118
 10
2.790157480315
 20
1.279527559055118
 10
1.609055118110275
 20
1.279527559055118
  0
LINE
  5
89
100
AcDbEntity
  8
const_0
  6
ByLayer
 62
  256
370
   -1
100
AcDbLine
 10
1.609055118110275
 20
1.279527559055118
 11
1.746850393700826
 21
1.279527559055118
  0
LINE
  5
8A
100
AcDbEntity
  8
const_0
  6
ByLayer
 62
  256
370
   -1
100
AcDbLine
 10
1.609055118110275
 20
-1.279527559055118
 11
1.746850118110275
 21
-1.279527559055118
  0
LINE
  5
8B
100
AcDbEntity
  8
const_0
  6
ByLayer
 62
  256
370
   -1
100
AcDbLine
 10
2.790157480315
 20
1.279527559055118
 11
2.652362480315
 21
1.279527559055118
  0
LINE
  5
8C
100
AcDbEntity
  8
const_0
  6
ByLayer
 62
  256
370
   -1
100
AcDbLine
 10
2.790157480315
 20
-1.279527559055118
 11
2.652362480315
 21
-1.279527559055118
  0
LINE
  5
8D
100
AcDbEntity
  8
const_0
  6
ByLayer
 62
  256
370
   -1
100
AcDbLine
 10
1.746850118110275
 20
-1.279527559055118
 11
1.746850118110275
 21
-1.141732283464567
  0
LINE
  5
8E
100
AcDbEntity
  8
const_0
  6
ByLayer
 62
  256
370
   -1
100
AcDbLine
 10
2.652362480315
 20
-1.279527559055118
 11
2.652362480315
 21
-1.141732559055118
  0
LINE
  5
8F
100
AcDbEntity
  8
const_0
  6
ByLayer
 62
  256
370
   -1
100
AcDbLine
 10
1.746850393700826
 20
1.279527559055118
 11
1.746850393700826
 21
1.141732559055118
  0
LINE
  5
90
100
AcDbEntity
  8
const_0
  6
ByLayer
 62
  256
370
   -1
100
AcDbLine
 10
2.652362480315
 20
1.279527559055118
 11
2.652362480315
 21
1.141732559055118
  0
LWPOLYLINE
  5
91
100
AcDbEntity
  8
outline_qwiic_pihat
  6
ByLayer
 62
  256
370
   -1
100
AcDbPolyline
 90
    4
 70
    1
 43
0
 10
0.984055118110275
 20
1.045
 10
1.609055118110275
 20
1.045
 10
1.609055118110275
 20
-1.045
 10
0.984055118110275
 20
-1.045
  0
LWPOLYLINE
  5
92
100
AcDbEntity
  8
outline_pi_conn
  6
ByLayer
 62
  256
370
   -1
100
AcDbPolyline
 90
    4
 70
    1
 43
0
 10
2.790157480315
 20
1.279527559055118
 10
3.490157480315
 20
1.279527559055118
 10
3.490157480315
 20
-1.279527559055118
 10
2.790157480315
 20
-1.279527559055118
  0
LINE
  5
93
100
AcDbEntity
  8
const_0
  6
ByLayer
 62
  256
370
   -1
100
AcDbLine
 10
1.4
 20
2.46062992126
 11
1.262205
 21
2.46062992126
  0
LINE
  5
94
100
AcDbEntity
  8
const_0
  6
ByLayer
 62
  256
370
   -1
100
AcDbLine
 10
-1.062204724409449
 20
2.46062992126
 11
-1.062204724409449
 21
2.322834645669448
  0
LINE
  5
95
100
AcDbEntity
  8
const_0
  6
ByLayer
 62
  256
370
   -1
100
AcDbLine
 10
1.262205
 20
2.46062992126
 11
1.262205
 21
2.32283492126
  0
LINE
  5
96
100
AcDbEntity
  8
const_0
  6
ByLayer
 62
  256
370
   -1
100
AcDbLine
 10
-1.062205
 20
-2.46062992126
 11
-1.062205
 21
-2.32283492126
  0
LINE
  5
97
100
AcDbEntity
  8
const_0
  6
ByLayer
 62
  256
370
   -1
100
AcDbLine
 10
1.262205
 20
-2.46062992126
 11
1.262205
 21
-2.32283492126
  0
LINE
  5
98
100
AcDbEntity
  8
const_0
  6
ByLayer
 62
  256
370
   -1
100
AcDbLine
 10
1.609055118110275
 20
1.279527559055118
 11
1.4
 21
1.279527559055118
  0
LINE
  5
99
100
AcDbEntity
  8
const_0
  6
ByLayer
 62
  256
370
   -1
100
AcDbLine
 10
1.609055118110275
 20
-1.279527559055118
 11
1.4
 21
-1.279527559055118
  0
LINE
  5
9A
100
AcDbEntity
  8
const_0
  6
ByLayer
 62
  256
370
   -1
100
AcDbLine
 10
-1.062204724409449
 20
2.46062992126
 11
-0.9244094488188974
 21
2.46062992126
  0
LINE
  5
9B
100
AcDbEntity
  8
const_0
  6
ByLayer
 62
  256
370
   -1
100
AcDbLine
 10
1.262205
 20
2.46062992126
 11
1.12441
 21
2.46062992126
  0
LINE
  5
9C
100
AcDbEntity
  8
const_0
  6
ByLayer
 62
  256
370
   -1
100
AcDbLine
 10
1.262205
 20
-2.46062992126
 11
1.12441
 21
-2.46062992126
  0
LINE
  5
9D
100
AcDbEntity
  8
const_0
  6
ByLayer
 62
  256
370
   -1
100
AcDbLine
 10
-1.2
 20
-2.46062992126
 11
-1.062205
 21
-2.46062992126
  0
LINE
  5
9E
100
AcDbEntity
  8
const_0
  6
ByLayer
 62
  256
370
   -1
100
AcDbLine
 10
-1.062205
 20
-2.46062992126
 11
-0.92441
 21
-2.46062992126
  0
LINE
  5
9F
100
AcDbEntity
  8
const_0
  6
ByLayer
 62
  256
370
   -1
100
AcDbLine
 10
1.4
 20
-2.46062992126
 11
1.262205
 21
-2.46062992126
  0
LINE
  5
A0
100
AcDbEntity
  8
boundary_upper_plate
  6
ByLayer
 62
  256
370
   -1
100
AcDbLine
 10
-1.2
 20
-1.110223024625157e-16
 11
-1.2
 21
2.39562992126
  0
ARC
  5
A1
100
AcDbEntity
  8
boundary_upper_plate
  6
ByLayer
 62
  256
370
   -1
100
AcDbCircle
 10
-1.135
 20
2.39562992126
 40
0.065
100
AcDbArc
 50
90
 51
180
  0
LINE
  5
A2
100
AcDbEntity
  8
boundary_upper_plate
  6
ByLayer
 62
  256
370
   -1
100
AcDbLine
 10
-1.135
 20
2.46062992126
 11
-0.9894094488188975
 21
2.46062992126
  0
ARC
  5
A3
100
AcDbEntity
  8
boundary_upper_plate
  6
ByLayer
 62
  256
370
   -1
100
AcDbCircle
 10
-0.9894094488188975
 20
2.39562992126
 40
0.065
100
AcDbArc
 50
0
 51
90
  0
LINE
  5
A4
100
AcDbEntity
  8
boundary_upper_plate
  6
ByLayer
 62
  256
370
   -1
100
AcDbLine
 10
-0.9244094488188974
 20
2.39562992126
 11
-0.9244094488188974
 21
2.37562992126
  0
ARC
  5
A5
100
AcDbEntity
  8
boundary_upper_plate
  6
ByLayer
 62
  256
370
   -1
100
AcDbCircle
 10
-0.8594094488188975
 20
2.37562992126
 40
0.065
100
AcDbArc
 50
180
 51
270
  0
LINE
  5
A6
100
AcDbEntity
  8
boundary_upper_plate
  6
ByLayer
 62
  256
370
   -1
100
AcDbLine
 10
-0.8594094488188975
 20
2.31062992126
 11
1.05941
 21
2.31062992126
  0
ARC
  5
A7
100
AcDbEntity
  8
boundary_upper_plate
  6
ByLayer
 62
  256
370
   -1
100
AcDbCircle
 10
1.05941
 20
2.37562992126
 40
0.065
100
AcDbArc
 50
270.0000000000002
 51
0
  0
LINE
  5
A8
100
AcDbEntity
  8
boundary_upper_plate
  6
ByLayer
 62
  256
370
   -1
100
AcDbLine
 10
1.12441
 20
2.37562992126
 11
1.12441
 21
2.39562992126
  0
ARC
  5
A9
100
AcDbEntity
  8
boundary_upper_plate
  6
ByLayer
 62
  256
370
   -1
100
AcDbCircle
 10
1.18941
 20
2.39562992126
 40
0.065
100
AcDbArc
 50
90
 51
180
  0
LINE
  5
AA
100
AcDbEntity
  8
boundary_upper_plate
  6
ByLayer
 62
  256
370
   -1
100
AcDbLine
 10
1.18941
 20
2.46062992126
 11
1.335
 21
2.46062992126
  0
ARC
  5
AB
100
AcDbEntity
  8
boundary_upper_plate
  6
ByLayer
 62
  256
370
   -1
100
AcDbCircle
 10
1.335
 20
2.39562992126
 40
0.065
100
AcDbArc
 50
0
 51
90
  0
LINE
  5
AC
100
AcDbEntity
  8
boundary_upper_plate
  6
ByLayer
 62
  256
370
   -1
100
AcDbLine
 10
1.4
 20
2.39562992126
 11
1.4
 21
1.344527559055118
  0
ARC
  5
AD
100
AcDbEntity
  8
boundary_upper_plate
  6
ByLayer
 62
  256
370
   -1
100
AcDbCircle
 10
1.335
 20
1.344527559055118
 40
0.065
100
AcDbArc
 50
270
 51
0
  0
LINE
  5
AE
100
AcDbEntity
  8
boundary_upper_plate
  6
ByLayer
 62
  256
370
   -1
100
AcDbLine
 10
1.335
 20
1.279527559055118
 11
0.8650000000000002
 21
1.279527559055118
  0
ARC
  5
AF
100
AcDbEntity
  8
boundary_upper_plate
  6
ByLayer
 62
  256
370
   -1
100
AcDbCircle
 10
0.8650000000000003
 20
1.214527559055118
 40
0.065
100
AcDbArc
 50
90.0000000000001
 51
180
  0
LINE
  5
B0
100
AcDbEntity
  8
boundary_upper_plate
  6
ByLayer
 62
  256
370
   -1
100
AcDbLine
 10
0.8000000000000004
 20
1.214527559055118
 11
0.7999999999999999
 21
-1.214527559055118
  0
ARC
  5
B1
100
AcDbEntity
  8
boundary_upper_plate
  6
ByLayer
 62
  256
370
   -1
100
AcDbCircle
 10
0.865
 20
-1.214527559055118
 40
0.065
100
AcDbArc
 50
179.9999999999998
 51
270
  0
LINE
  5
B2
100
AcDbEntity
  8
boundary_upper_plate
  6
ByLayer
 62
  256
370
   -1
100
AcDbLine
 10
1.335
 20
-1.279527559055118
 11
0.865
 21
-1.279527559055118
  0
ARC
  5
B3
100
AcDbEntity
  8
boundary_upper_plate
  6
ByLayer
 62
  256
370
   -1
100
AcDbCircle
 10
1.335
 20
-1.344527559055118
 40
0.065
100
AcDbArc
 50
0
 51
90
  0
LINE
  5
B4
100
AcDbEntity
  8
boundary_upper_plate
  6
ByLayer
 62
  256
370
   -1
100
AcDbLine
 10
1.4
 20
-1.344527559055118
 11
1.4
 21
-2.39562992126
  0
ARC
  5
B5
100
AcDbEntity
  8
boundary_upper_plate
  6
ByLayer
 62
  256
370
   -1
100
AcDbCircle
 10
1.335
 20
-2.39562992126
 40
0.065
100
AcDbArc
 50
270
 51
0
  0
LINE
  5
B6
100
AcDbEntity
  8
boundary_upper_plate
  6
ByLayer
 62
  256
370
   -1
100
AcDbLine
 10
1.18941
 20
-2.46062992126
 11
1.335
 21
-2.46062992126
  0
ARC
  5
B7
100
AcDbEntity
  8
boundary_upper_plate
  6
ByLayer
 62
  256
370
   -1
100
AcDbCircle
 10
1.18941
 20
-2.39562992126
 40
0.065
100
AcDbArc
 50
180
 51
270
  0
LINE
  5
B8
100
AcDbEntity
  8
boundary_upper_plate
  6
ByLayer
 62
  256
370
   -1
100
AcDbLine
 10
1.12441
 20
-2.37562992126
 11
1.12441
 21
-2.39562992126
  0
ARC
  5
B9
100
AcDbEntity
  8
boundary_upper_plate
  6
ByLayer
 62
  256
370
   -1
100
AcDbCircle
 10
1.05941
 20
-2.37562992126
 40
0.065
100
AcDbArc
 50
0
 51
89.99999999999982
  0
LINE
  5
BA
100
AcDbEntity
  8
boundary_upper_plate
  6
ByLayer
 62
  256
370
   -1
100
AcDbLine
 10
-0.85941
 20
-2.31062992126
 11
1.05941
 21
-2.31062992126
  0
ARC
  5
BB
100
AcDbEntity
  8
boundary_upper_plate
  6
ByLayer
 62
  256
370
   -1
100
AcDbCircle
 10
-0.85941
 20
-2.37562992126
 40
0.065
100
AcDbArc
 50
90
 51
180
  0
LINE
  5
BC
100
AcDbEntity
  8
boundary_upper_plate
  6
ByLayer
 62
  256
370
   -1
100
AcDbLine
 10
-0.92441
 20
-2.39562992126
 11
-0.92441
 21
-2.37562992126
  0
ARC
  5
BD
100
AcDbEntity
  8
boundary_upper_plate
  6
ByLayer
 62
  256
370
   -1
100
AcDbCircle
 10
-0.98941
 20
-2.39562992126
 40
0.065
100
AcDbArc
 50
270
 51
0
  0
LINE
  5
BE
100
AcDbEntity
  8
boundary_upper_plate
  6
ByLayer
 62
  256
370
   -1
100
AcDbLine
 10
-1.135
 20
-2.46062992126
 11
-0.98941
 21
-2.46062992126
  0
LINE
  5
BF
100
AcDbEntity
  8
boundary_upper_plate
  6
ByLayer
 62
  256
370
   -1
100
AcDbLine
 10
-1.2
 20
-1.110223024625157e-16
 11
-1.2
 21
-2.39562992126
  0
ARC
  5
C0
100
AcDbEntity
  8
boundary_upper_plate
  6
ByLayer
 62
  256
370
   -1
100
AcDbCircle
 10
-1.135
 20
-2.39562992126
 40
0.065
100
AcDbArc
 50
180
 51
270
  0
LINE
  5
C1
100
AcDbEntity
  8
const_1
  6
ByLayer
 62
  256
370
   -1
100
AcDbLine
 10
-3.740157480315
 20
2.775557561562891e-17
 11
-1.840157480315
 21
2.775557561562891e-17
  0
LINE
  5
C2
100
AcDbEntity
  8
const_0
  6
ByLayer
 62
  256
370
   -1
100
AcDbLine
 10
-2.465157480315
 20
-0.3125000000000001
 11
-2.465157480315
 21
2.775557561562891e-17
  0
LINE
  5
C3
100
AcDbEntity
  8
const_0
  6
ByLayer
 62
  256
370
   -1
100
AcDbLine
 10
-2.465157480315
 20
2.775557561562891e-17
 11
-2.215157480315
 21
2.775557561562891e-17
  0
LINE
  5
C4
100
AcDbEntity
  8
const_0
  6
ByLayer
 62
  256
370
   -1
100
AcDbLine
 10
-2.465157480315
 20
-0.3125000000000001
 11
-2.465157480315
 21
0.625
  0
LINE
  5
C5
100
AcDbEntity
  8
const_0
  6
ByLayer
 62
  256
370
   -1
100
AcDbLine
 10
-2.465157480315
 20
0.625
 11
-2.090157480315
 21
0.625
  0
LINE
  5
C6
100
AcDbEntity
  8
const_1
  6
ByLayer
 62
  256
370
   -1
100
AcDbLine
 10
-2.215157480315
 20
2.775557561562891e-17
 11
-1.840157480315
 21
2.775557561562891e-17
  0
LWPOLYLINE
  5
C7
100
AcDbEntity
  8
outline_camera_bracket
  6
ByLayer
 62
  256
370
   -1
100
AcDbPolyline
 90
    4
 70
    1
 43
0
 10
-2.465157480315
 20
-0.3125000000000001
 10
-1.840157480315
 20
-0.3125000000000001
 10
-1.840157480315
 20
1.1875
 10
-2.465157480315
 20
1.1875
  0
CIRCLE
  5
C8
100
AcDbEntity
  8
outline_camera_bracket
  6
ByLayer
 62
  256
370
   -1
100
AcDbCircle
 10
-2.215157480315
 20
2.775557561562891e-17
 40
0.1005
  0
CIRCLE
  5
C9
100
AcDbEntity
  8
outline_camera_bracket
  6
ByLayer
 62
  256
370
   -1
100
AcDbCircle
 10
-2.090157480315
 20
0.625
 40
0.1005
  0
LINE
  5
CA
100
AcDbEntity
  8
const_0
  6
ByLayer
 62
  256
370
   -1
100
AcDbLine
 10
-1.840157480315
 20
1.1875
 11
-1.840157480315
 21
-0.9824999999999999
  0
LINE
  5
CB
100
AcDbEntity
  8
outline_6-32_backet
  6
ByLayer
 62
  256
370
   -1
100
AcDbLine
 10
-2.888
 20
1.85
 11
-3.3
 21
1.85
  0
LINE
  5
CC
100
AcDbEntity
  8
outline_6-32_backet
  6
ByLayer
 62
  256
370
   -1
100
AcDbLine
 10
-2.748
 20
1.85
 11
-2.748
 21
2.1
  0
LINE
  5
CD
100
AcDbEntity
  8
outline_6-32_backet
  6
ByLayer
 62
  256
370
   -1
100
AcDbLine
 10
-2.748
 20
1.85
 11
-2.748000000000001
 21
1.6
  0
LINE
  5
CE
100
AcDbEntity
  8
outline_6-32_backet
  6
ByLayer
 62
  256
370
   -1
100
AcDbLine
 10
-2.748000000000001
 20
1.6
 11
-3.3
 21
1.6
  0
LINE
  5
CF
100
AcDbEntity
  8
outline_6-32_backet
  6
ByLayer
 62
  256
370
   -1
100
AcDbLine
 10
-2.748
 20
2.1
 11
-3.3
 21
2.1
  0
LINE
  5
D0
100
AcDbEntity
  8
outline_6-32_backet
  6
ByLayer
 62
  256
370
   -1
100
AcDbLine
 10
-3.3
 20
1.6
 11
-3.3
 21
2.1
  0
CIRCLE
  5
D1
100
AcDbEntity
  8
outline_6-32_backet
  6
ByLayer
 62
  256
370
   -1
100
AcDbCircle
 10
-2.888
 20
1.85
 40
0.135
  0
CIRCLE
  5
D2
100
AcDbEntity
  8
6-32_through_hole
  6
ByLayer
 62
  256
370
   -1
100
AcDbCircle
 10
-2.888
 20
1.85
 40
0.074
  0
LINE
  5
D3
100
AcDbEntity
  8
outline_6-32_backet
  6
ByLayer
 62
  256
370
   -1
100
AcDbLine
 10
-2.888
 20
1.25
 11
-3.3
 21
1.25
  0
LINE
  5
D4
100
AcDbEntity
  8
outline_6-32_backet
  6
ByLayer
 62
  256
370
   -1
100
AcDbLine
 10
-2.748
 20
1.25
 11
-2.748
 21
1.5
  0
LINE
  5
D5
100
AcDbEntity
  8
outline_6-32_backet
  6
ByLayer
 62
  256
370
   -1
100
AcDbLine
 10
-2.748
 20
1.25
 11
-2.748000000000001
 21
1
  0
LINE
  5
D6
100
AcDbEntity
  8
outline_6-32_backet
  6
ByLayer
 62
  256
370
   -1
100
AcDbLine
 10
-2.748000000000001
 20
1
 11
-3.3
 21
1
  0
LINE
  5
D7
100
AcDbEntity
  8
outline_6-32_backet
  6
ByLayer
 62
  256
370
   -1
100
AcDbLine
 10
-2.748
 20
1.5
 11
-3.3
 21
1.5
  0
LINE
  5
D8
100
AcDbEntity
  8
outline_6-32_backet
  6
ByLayer
 62
  256
370
   -1
100
AcDbLine
 10
-3.3
 20
1
 11
-3.3
 21
1.5
  0
CIRCLE
  5
D9
100
AcDbEntity
  8
outline_6-32_backet
  6
ByLayer
 62
  256
370
   -1
100
AcDbCircle
 10
-2.888
 20
1.25
 40
0.135
  0
CIRCLE
  5
DA
100
AcDbEntity
  8
6-32_through_hole
  6
ByLayer
 62
  256
370
   -1
100
AcDbCircle
 10
-2.888
 20
1.25
 40
0.074
  0
LINE
  5
DB
100
AcDbEntity
  8
const_0
  6
ByLayer
 62
  256
370
   -1
100
AcDbLine
 10
-3.3
 20
1.6
 11
-3.3
 21
1.5
  0
LINE
  5
DC
100
AcDbEntity
  8
const_0
  6
ByLayer
 62
  256
370
   -1
100
AcDbLine
 10
-3.3
 20
2.1
 11
-3.6
 21
2.1
  0
LINE
  5
DD
100
AcDbEntity
  8
const_0
  6
ByLayer
 62
  256
370
   -1
100
AcDbLine
 10
-3.3
 20
1
 11
-3.6
 21
1
  0
LINE
  5
DE
100
AcDbEntity
  8
const_0
  6
ByLayer
 62
  256
370
   -1
100
AcDbLine
 10
-3.3
 20
1.55
 11
-3.6
 21
1.55
  0
LWPOLYLINE
  5
DF
100
AcDbEntity
  8
outline_sensors
  6
ByLayer
 62
  256
370
   -1
100
AcDbPolyline
 90
    4
 70
    1
 43
0
 10
-3.6
 20
2.1
 10
-3.3
 20
2.1
 10
-3.3
 20
1
 10
-3.6
 20
1
  0
LINE
  5
E0
100
AcDbEntity
  8
const_0
  6
ByLayer
 62
  256
370
   -1
100
AcDbLine
 10
-3.6
 20
2.1
 11
-3.6
 21
2.27
  0
LINE
  5
E1
100
AcDbEntity
  8
const_0
  6
ByLayer
 62
  256
370
   -1
100
AcDbLine
 10
-2.748
 20
2.1
 11
-2.748
 21
2.27
  0
LINE
  5
E2
100
AcDbEntity
  8
const_0
  6
ByLayer
 62
  256
370
   -1
100
AcDbLine
 10
-1.840157480315
 20
2.775557561562891e-17
 11
-3.620157480315
 21
2.775557561562891e-17
  0
LINE
  5
E3
100
AcDbEntity
  8
const_0
  6
ByLayer
 62
  256
370
   -1
100
AcDbLine
 10
0.8000000000000003
 20
1.214527559055118
 11
0.8000000000000003
 21
2
  0
LINE
  5
E4
100
AcDbEntity
  8
const_0
  6
ByLayer
 62
  256
370
   -1
100
AcDbLine
 10
-1.2
 20
2
 11
0.8000000000000003
 21
2
  0
LINE
  5
E5
100
AcDbEntity
  8
const_0
  6
ByLayer
 62
  256
370
   -1
100
AcDbLine
 10
0.7999999999999999
 20
-1.214527559055118
 11
0.7999999999999999
 21
-2
  0
LINE
  5
E6
100
AcDbEntity
  8
const_0
  6
ByLayer
 62
  256
370
   -1
100
AcDbLine
 10
-1.2
 20
-2
 11
0.7999999999999999
 21
-2
  0
LWPOLYLINE
  5
E7
100
AcDbEntity
  8
outline_solar_charger
  6
ByLayer
 62
  256
370
   -1
100
AcDbPolyline
 90
    4
 70
    1
 43
0
 10
-0.75
 20
0.3999999999999998
 10
0.3499999999999996
 20
0.3999999999999998
 10
0.3499999999999996
 20
1.699999999999999
 10
-0.75
 20
1.699999999999999
  0
LINE
  5
E8
100
AcDbEntity
  8
outline_solar_charger
  6
ByLayer
 62
  256
370
   -1
100
AcDbLine
 10
0.3499999999999996
 20
1.699999999999999
 11
-0.75
 21
0.3999999999999998
  0
LWPOLYLINE
  5
E9
100
AcDbEntity
  8
outline_solar_charger
  6
ByLayer
 62
  256
370
   -1
100
AcDbPolyline
 90
    4
 70
    1
 43
0
 10
-0.8499999999999996
 20
0.2999999999999997
 10
0.4500000000000002
 20
0.2999999999999997
 10
0.4500000000000002
 20
1.8
 10
-0.8499999999999996
 20
1.8
  0
LINE
  5
EA
100
AcDbEntity
  8
outline_solar_charger
  6
ByLayer
 62
  256
370
   -1
100
AcDbLine
 10
-0.8499999999999996
 20
1.8
 11
0.4500000000000002
 21
0.2999999999999997
  0
CIRCLE
  5
EB
100
AcDbEntity
  8
2-56_through_hole
  6
ByLayer
 62
  256
370
   -1
100
AcDbCircle
 10
1.262205
 20
2.32283492126
 40
0.0445
  0
CIRCLE
  5
EC
100
AcDbEntity
  8
2-56_through_hole
  6
ByLayer
 62
  256
370
   -1
100
AcDbCircle
 10
-1.062205
 20
-2.32283492126
 40
0.0445
  0
CIRCLE
  5
ED
100
AcDbEntity
  8
2-56_through_hole
  6
ByLayer
 62
  256
370
   -1
100
AcDbCircle
 10
1.262205
 20
-2.32283492126
 40
0.0445
  0
LINE
  5
EE
100
AcDbEntity
  8
const_0
  6
ByLayer
 62
  256
370
   -1
100
AcDbLine
 10
-1.4
 20
4.552
 11
-1.5
 21
4.552
  0
LINE
  5
EF
100
AcDbEntity
  8
const_0
  6
ByLayer
 62
  256
370
   -1
100
AcDbLine
 10
-3.3
 20
2.1
 11
-2.5
 21
2.1
  0
LWPOLYLINE
  5
F0
100
AcDbEntity
  8
outline_mini_gps
  6
ByLayer
 62
  256
370
   -1
100
AcDbPolyline
 90
    4
 70
    1
 43
0
 10
-0.6000000000000001
 20
-2.1
 10
0.2000000000000002
 20
-2.1
 10
0.2000000000000002
 20
-1.3
 10
-0.6000000000000001
 20
-1.3
  0
LINE
  5
F1
100
AcDbEntity
  8
outline_mini_gps
  6
ByLayer
 62
  256
370
   -1
100
AcDbLine
 10
0.2000000000000002
 20
-1.3
 11
-0.6000000000000001
 21
-2.1
  0
LWPOLYLINE
  5
F2
100
AcDbEntity
  8
outline_mini_gps
  6
ByLayer
 62
  256
370
   -1
100
AcDbPolyline
 90
    4
 70
    1
 43
0
 10
-0.7000000000000002
 20
-2.2
 10
0.2999999999999998
 20
-2.2
 10
0.2999999999999998
 20
-1.2
 10
-0.7000000000000002
 20
-1.2
  0
LINE
  5
F3
100
AcDbEntity
  8
outline_mini_gps
  6
ByLayer
 62
  256
370
   -1
100
AcDbLine
 10
-0.7000000000000002
 20
-1.2
 11
0.2999999999999998
 21
-2.2
  0
LWPOLYLINE
  5
F4
100
AcDbEntity
  8
boundary_sensor_plate
  6
ByLayer
 62
  256
370
   -1
100
AcDbPolyline
 90
    4
 70
    1
 43
0
 10
-2
 20
6.052
 10
-0.9000000000000004
 20
6.052
 10
-0.9000000000000004
 20
4
 10
-2
 20
4
  0
DIMENSION
  5
F5
100
AcDbEntity
  8
dimensions
  6
ByLayer
 62
  256
370
   -1
100
AcDbDimension
  2
*D1
 10
-2.3
 20
4.552
 30
0
 11
-2.375
 21
5.302
 31
0
 70
   32
 71
    5
 72
    0
  3
Standard
 53
0
210
0
220
0
230
1
100
AcDbAlignedDimension
 13
-2
 23
6.052
 33
0
 14
-2
 24
4.552
 34
0
 50
90
100
AcDbRotatedDimension
  0
LINE
  5
F6
100
AcDbEntity
  8
const_0
  6
ByLayer
 62
  256
370
   -1
100
AcDbLine
 10
-1.45
 20
4.552
 11
-1.45
 21
4.585
  0
LWPOLYLINE
  5
F7
100
AcDbEntity
  8
outline_tsl2591
  6
ByLayer
 62
  256
370
   -1
100
AcDbPolyline
 90
    4
 70
    1
 43
0
 10
-1.85
 20
4.685
 10
-1.05
 20
4.685
 10
-1.05
 20
5.185
 10
-1.85
 20
5.185
  0
LINE
  5
F8
100
AcDbEntity
  8
outline_tsl2591
  6
ByLayer
 62
  256
370
   -1
100
AcDbLine
 10
-1.85
 20
4.685
 11
-1.05
 21
5.185
  0
LWPOLYLINE
  5
F9
100
AcDbEntity
  8
outline_tsl2591
  6
ByLayer
 62
  256
370
   -1
100
AcDbPolyline
 90
    4
 70
    1
 43
0
 10
-1.95
 20
4.585
 10
-0.9500000000000002
 20
4.585
 10
-0.9500000000000002
 20
5.284999999999999
 10
-1.95
 20
5.284999999999999
  0
LINE
  5
FA
100
AcDbEntity
  8
outline_tsl2591
  6
ByLayer
 62
  256
370
   -1
100
AcDbLine
 10
-1.95
 20
5.284999999999999
 11
-0.9500000000000002
 21
4.585
  0
LINE
  5
FB
100
AcDbEntity
  8
const_0
  6
ByLayer
 62
  256
370
   -1
100
AcDbLine
 10
-1.45
 20
5.284999999999999
 11
-1.45
 21
5.318
  0
LWPOLYLINE
  5
FC
100
AcDbEntity
  8
outline_tsl2591
  6
ByLayer
 62
  256
370
   -1
100
AcDbPolyline
 90
    4
 70
    1
 43
0
 10
-1.85
 20
5.417999999999999
 10
-1.05
 20
5.417999999999999
 10
-1.05
 20
5.917999999999999
 10
-1.85
 20
5.917999999999999
  0
LINE
  5
FD
100
AcDbEntity
  8
outline_tsl2591
  6
ByLayer
 62
  256
370
   -1
100
AcDbLine
 10
-1.85
 20
5.417999999999999
 11
-1.05
 21
5.917999999999999
  0
LWPOLYLINE
  5
FE
100
AcDbEntity
  8
outline_tsl2591
  6
ByLayer
 62
  256
370
   -1
100
AcDbPolyline
 90
    4
 70
    1
 43
0
 10
-1.95
 20
5.318
 10
-0.9500000000000002
 20
5.318
 10
-0.9500000000000002
 20
6.017999999999999
 10
-1.95
 20
6.017999999999999
  0
LINE
  5
FF
100
AcDbEntity
  8
outline_tsl2591
  6
ByLayer
 62
  256
370
   -1
100
AcDbLine
 10
-1.95
 20
6.017999999999999
 11
-0.9500000000000002
 21
5.318
  0
DIMENSION
  5
100
100
AcDbEntity
  8
dimensions
  6
ByLayer
 62
  256
370
   -1
100
AcDbDimension
  2
*D2
 10
-0.5999999999999994
 20
4
 30
0
 11
-0.6749999999999994
 21
5.026
 31
0
 70
   32
 71
    5
 72
    0
  3
Standard
 53
0
210
0
220
0
230
1
100
AcDbAlignedDimension
 13
-0.9000000000000004
 23
6.052
 33
0
 14
-0.9000000000000004
 24
4
 34
0
 50
90
100
AcDbRotatedDimension
  0
LINE
  5
101
100
AcDbEntity
  8
outline_6-32_backet
  6
ByLayer
 62
  256
370
   -1
100
AcDbLine
 10
-1.15
 20
4.412
 11
-1.15
 21
4
  0
LINE
  5
102
100
AcDbEntity
  8
outline_6-32_backet
  6
ByLayer
 62
  256
370
   -1
100
AcDbLine
 10
-1.15
 20
4.552
 11
-0.9000000000000004
 21
4.552
  0
LINE
  5
103
100
AcDbEntity
  8
outline_6-32_backet
  6
ByLayer
 62
  256
370
   -1
100
AcDbLine
 10
-1.15
 20
4.552
 11
-1.4
 21
4.552
  0
LINE
  5
104
100
AcDbEntity
  8
outline_6-32_backet
  6
ByLayer
 62
  256
370
   -1
100
AcDbLine
 10
-1.4
 20
4.552
 11
-1.4
 21
4
  0
LINE
  5
105
100
AcDbEntity
  8
outline_6-32_backet
  6
ByLayer
 62
  256
370
   -1
100
AcDbLine
 10
-0.9000000000000004
 20
4.552
 11
-0.9000000000000004
 21
4
  0
LINE
  5
106
100
AcDbEntity
  8
outline_6-32_backet
  6
ByLayer
 62
  256
370
   -1
100
AcDbLine
 10
-1.4
 20
4
 11
-0.9000000000000004
 21
4
  0
CIRCLE
  5
107
100
AcDbEntity
  8
outline_6-32_backet
  6
ByLayer
 62
  256
370
   -1
100
AcDbCircle
 10
-1.15
 20
4.412
 40
0.135
  0
CIRCLE
  5
108
100
AcDbEntity
  8
6-32_through_hole
  6
ByLayer
 62
  256
370
   -1
100
AcDbCircle
 10
-1.15
 20
4.412
 40
0.074
  0
LINE
  5
109
100
AcDbEntity
  8
outline_6-32_backet
  6
ByLayer
 62
  256
370
   -1
100
AcDbLine
 10
-1.75
 20
4.412
 11
-1.75
 21
4
  0
LINE
  5
10A
100
AcDbEntity
  8
outline_6-32_backet
  6
ByLayer
 62
  256
370
   -1
100
AcDbLine
 10
-1.75
 20
4.552
 11
-1.5
 21
4.552
  0
LINE
  5
10B
100
AcDbEntity
  8
outline_6-32_backet
  6
ByLayer
 62
  256
370
   -1
100
AcDbLine
 10
-1.75
 20
4.552
 11
-2
 21
4.552
  0
LINE
  5
10C
100
AcDbEntity
  8
outline_6-32_backet
  6
ByLayer
 62
  256
370
   -1
100
AcDbLine
 10
-2
 20
4.552
 11
-2
 21
4
  0
LINE
  5
10D
100
AcDbEntity
  8
outline_6-32_backet
  6
ByLayer
 62
  256
370
   -1
100
AcDbLine
 10
-1.5
 20
4.552
 11
-1.5
 21
4
  0
LINE
  5
10E
100
AcDbEntity
  8
outline_6-32_backet
  6
ByLayer
 62
  256
370
   -1
100
AcDbLine
 10
-2
 20
4
 11
-1.5
 21
4
  0
CIRCLE
  5
10F
100
AcDbEntity
  8
outline_6-32_backet
  6
ByLayer
 62
  256
370
   -1
100
AcDbCircle
 10
-1.75
 20
4.412
 40
0.135
  0
CIRCLE
  5
110
100
AcDbEntity
  8
6-32_through_hole
  6
ByLayer
 62
  256
370
   -1
100
AcDbCircle
 10
-1.75
 20
4.412
 40
0.074
  0
LINE
  5
111
100
AcDbEntity
  8
const_0
  6
ByLayer
 62
  256
370
   -1
100
AcDbLine
 10
-2
 20
4.276
 11
-0.9000000000000004
 21
4.276
  0
CIRCLE
  5
112
100
AcDbEntity
  8
2-56_insert_hole
  6
ByLayer
 62
  256
370
   -1
100
AcDbCircle
 10
-2.888
 20
1.85
 40
0.0615
  0
CIRCLE
  5
113
100
AcDbEntity
  8
2-56_insert_hole
  6
ByLayer
 62
  256
370
   -1
100
AcDbCircle
 10
-2.888
 20
1.25
 40
0.0615
  0
CIRCLE
  5
114
100
AcDbEntity
  8
2-56_insert_hole
  6
ByLayer
 62
  256
370
   -1
100
AcDbCircle
 10
-1.0622
 20
2.32283
 40
0.0615
  0
CIRCLE
  5
115
100
AcDbEntity
  8
2-56_insert_hole
  6
ByLayer
 62
  256
370
   -1
100
AcDbCircle
 10
-0.75
 20
1.7
 40
0.0615
  0
CIRCLE
  5
116
100
AcDbEntity
  8
2-56_insert_hole
  6
ByLayer
 62
  256
370
   -1
100
AcDbCircle
 10
0.35
 20
1.7
 40
0.0615
  0
CIRCLE
  5
117
100
AcDbEntity
  8
2-56_insert_hole
  6
ByLayer
 62
  256
370
   -1
100
AcDbCircle
 10
1.26221
 20
2.32283
 40
0.0615
  0
CIRCLE
  5
118
100
AcDbEntity
  8
2-56_insert_hole
  6
ByLayer
 62
  256
370
   -1
100
AcDbCircle
 10
0.35
 20
0.4
 40
0.0615
  0
CIRCLE
  5
119
100
AcDbEntity
  8
2-56_insert_hole
  6
ByLayer
 62
  256
370
   -1
100
AcDbCircle
 10
-0.75
 20
0.4
 40
0.0615
  0
CIRCLE
  5
11A
100
AcDbEntity
  8
2-56_insert_hole
  6
ByLayer
 62
  256
370
   -1
100
AcDbCircle
 10
0.2
 20
-1.3
 40
0.0615
  0
CIRCLE
  5
11B
100
AcDbEntity
  8
2-56_insert_hole
  6
ByLayer
 62
  256
370
   -1
100
AcDbCircle
 10
-0.6
 20
-1.3
 40
0.0615
  0
CIRCLE
  5
11C
100
AcDbEntity
  8
2-56_insert_hole
  6
ByLayer
 62
  256
370
   -1
100
AcDbCircle
 10
0.2
 20
-2.1
 40
0.0615
  0
CIRCLE
  5
11D
100
AcDbEntity
  8
2-56_insert_hole
  6
ByLayer
 62
  256
370
   -1
100
AcDbCircle
 10
-1.06221
 20
-2.32283
 40
0.0615
  0
CIRCLE
  5
11E
100
AcDbEntity
  8
2-56_insert_hole
  6
ByLayer
 62
  256
370
   -1
100
AcDbCircle
 10
-0.6
 20
-2.1
 40
0.0615
  0
CIRCLE
  5
11F
100
AcDbEntity
  8
2-56_insert_hole
  6
ByLayer
 62
  256
370
   -1
100
AcDbCircle
 10
1.26221
 20
-2.32283
 40
0.0615
  0
CIRCLE
  5
120
100
AcDbEntity
  8
2-56_insert_hole
  6
ByLayer
 62
  256
370
   -1
100
AcDbCircle
 10
-1.45
 20
-2.2
 40
0.0615
  0
CIRCLE
  5
121
100
AcDbEntity
  8
2-56_insert_hole
  6
ByLayer
 62
  256
370
   -1
100
AcDbCircle
 10
-1.45
 20
-1.4
 40
0.0615
  0
CIRCLE
  5
122
100
AcDbEntity
  8
2-56_insert_hole
  6
ByLayer
 62
  256
370
   -1
100
AcDbCircle
 10
-3.5
 20
-1.4
 40
0.0615
  0
CIRCLE
  5
123
100
AcDbEntity
  8
2-56_insert_hole
  6
ByLayer
 62
  256
370
   -1
100
AcDbCircle
 10
-3.5
 20
-2.2
 40
0.0615
  0
CIRCLE
  5
124
100
AcDbEntity
  8
2-56_insert_hole
  6
ByLayer
 62
  256
370
   -1
100
AcDbCircle
 10
1.74685
 20
-1.14173
 40
0.0615
  0
CIRCLE
  5
125
100
AcDbEntity
  8
2-56_insert_hole
  6
ByLayer
 62
  256
370
   -1
100
AcDbCircle
 10
2.65236
 20
-1.14173
 40
0.0615
  0
CIRCLE
  5
126
100
AcDbEntity
  8
2-56_insert_hole
  6
ByLayer
 62
  256
370
   -1
100
AcDbCircle
 10
2.65236
 20
1.14173
 40
0.0615
  0
CIRCLE
  5
127
100
AcDbEntity
  8
2-56_insert_hole
  6
ByLayer
 62
  256
370
   -1
100
AcDbCircle
 10
1.74685
 20
1.14173
 40
0.0615
  0
CIRCLE
  5
128
100
AcDbEntity
  8
2-56_insert_hole
  6
ByLayer
 62
  256
370
   -1
100
AcDbCircle
 10
-1.85
 20
5.918
 40
0.0615
  0
CIRCLE
  5
129
100
AcDbEntity
  8
2-56_insert_hole
  6
ByLayer
 62
  256
370
   -1
100
AcDbCircle
 10
-1.05
 20
5.918
 40
0.0615
  0
CIRCLE
  5
12A
100
AcDbEntity
  8
2-56_insert_hole
  6
ByLayer
 62
  256
370
   -1
100
AcDbCircle
 10
-1.05
 20
5.418
 40
0.0615
  0
CIRCLE
  5
12B
100
AcDbEntity
  8
2-56_insert_hole
  6
ByLayer
 62
  256
370
   -1
100
AcDbCircle
 10
-1.85
 20
5.418
 40
0.0615
  0
CIRCLE
  5
12C
100
AcDbEntity
  8
2-56_insert_hole
  6
ByLayer
 62
  256
370
   -1
100
AcDbCircle
 10
-1.05
 20
5.185
 40
0.0615
  0
CIRCLE
  5
12D
100
AcDbEntity
  8
2-56_insert_hole
  6
ByLayer
 62
  256
370
   -1
100
AcDbCircle
 10
-1.85
 20
5.185
 40
0.0615
  0
CIRCLE
  5
12E
100
AcDbEntity
  8
2-56_insert_hole
  6
ByLayer
 62
  256
370
   -1
100
AcDbCircle
 10
-1.05
 20
4.685
 40
0.0615
  0
CIRCLE
  5
12F
100
AcDbEntity
  8
2-56_insert_hole
  6
ByLayer
 62
  256
370
   -1
100
AcDbCircle
 10
-1.85
 20
4.685
 40
0.0615
  0
CIRCLE
  5
130
100
AcDbEntity
  8
2-56_insert_hole
  6
ByLayer
 62
  256
370
   -1
100
AcDbCircle
 10
-1.15
 20
4.412
 40
0.0615
  0
CIRCLE
  5
131
100
AcDbEntity
  8
2-56_insert_hole
  6
ByLayer
 62
  256
370
   -1
100
AcDbCircle
 10
-1.75
 20
4.412
 40
0.0615
  0
CIRCLE
  5
132
100
AcDbEntity
  8
10-32_insert_hole
  6
ByLayer
 62
  256
370
   -1
100
AcDbCircle
 10
-2.09016
 20
0.625
 40
0.1375
  0
CIRCLE
  5
133
100
AcDbEntity
  8
10-32_insert_hole
  6
ByLayer
 62
  256
370
   -1
100
AcDbCircle
 10
-2.21516
 20
2.77556e-17
 40
0.1375
  0
CIRCLE
  5
134
100
AcDbEntity
  8
2-56_through_hole
  6
ByLayer
 62
  256
370
   -1
100
AcDbCircle
 10
-1.0622
 20
2.32283
 40
0.0445
  0
ENDSEC
  0
SECTION
  2
OBJECTS
  0
DICTIONARY
  5
C
330
0
100
AcDbDictionary
281
    1
  3
ACAD_GROUP
350
D
  0
DICTIONARY
  5
D
330
C
100
AcDbDictionary
281
    1
  0
ENDSEC
  0
EOF
